<svg id="Layer_1" data-name="Layer 1" xmlns="http://www.w3.org/2000/svg" viewBox="0 0 340.16 56.69"><defs><style>.cls-1{fill:#1d1d1b;}</style></defs><title>uopqueenlogomono</title><path class="cls-1" d="M320.33,35.41A10.13,10.13,0,0,0,318,32.16l-.58-.51a15.78,15.78,0,0,0-8.87-2.87,22.47,22.47,0,0,0-4.78.3l0-7.45a15.71,15.71,0,0,1,3.77.39c9.63,2.42,12.53,9.64,12.82,10.25h0c.29-.62,3.19-7.84,12.82-10.26a15.71,15.71,0,0,1,3.77-.39l0,7.45a21.81,21.81,0,0,0-4.78-.3,15.78,15.78,0,0,0-8.87,2.87l-.58.5a10.28,10.28,0,0,0-2.33,3.26Z"/><path class="cls-1" d="M320.38,36.52a10.28,10.28,0,0,0,2.33,3.26l.59.5a15.75,15.75,0,0,0,8.86,2.87,21.81,21.81,0,0,0,4.78-.3l0,7.45a15.65,15.65,0,0,1-3.77-.39c-9.64-2.42-12.54-9.63-12.82-10.25h0c-.28.62-3.18,7.84-12.82,10.26a15.65,15.65,0,0,1-3.77.39l0-7.44a22.22,22.22,0,0,0,4.77.29,15.75,15.75,0,0,0,8.87-2.86l.58-.51a10.2,10.2,0,0,0,2.34-3.26Z"/><path class="cls-1" d="M320.12,3.38a1,1,0,0,0,.94-.22,1.07,1.07,0,0,0,.3-1c-.09-.54-.73-.72-.73-.72V.94h.5V.56h-.49V0h-.45V.56h-.52V.94h.5v.45a1.42,1.42,0,0,0-.54.33,1,1,0,0,0-.21,1,1,1,0,0,0,.7.68"/><path class="cls-1" d="M319.59,4.67c.12.43.18.9.26,1.34.2,0,.35-.27.57-.29l.49.36c.12-.44.19-.93.3-1.38l0,0a6.18,6.18,0,0,1,1.68.32,4.56,4.56,0,0,1,2.33,1.75l.7-.45a4.44,4.44,0,0,0-.52-.73,7.69,7.69,0,0,0-5-1.85,7.17,7.17,0,0,0-5.25,2,3.35,3.35,0,0,0-.39.59,8,8,0,0,0,.72.43,5.22,5.22,0,0,1,4.06-2"/><path class="cls-1" d="M314.33,6.86l1.49,5H325l1.52-5,0,0c-.33.25-.71.39-1,.63a6.36,6.36,0,0,1-.22.66L325,7.78a.7.7,0,0,0-.63-.1,1,1,0,0,0-.59.73,1.2,1.2,0,0,0,.28,1.09.23.23,0,0,0,.23,0,1,1,0,0,1,.19-.59.44.44,0,0,1,.43-.09.67.67,0,0,1,.12.16.87.87,0,0,1-.88,1,1.17,1.17,0,0,1-.8-.54,1.32,1.32,0,0,1,0-1.05c.07,0,.48-.18.39-.52a.94.94,0,0,0-.27-.27l.08-1H323l-.18.9a1.48,1.48,0,0,0-.41.24.41.41,0,0,0-.1.34.62.62,0,0,0,.32.3,1.66,1.66,0,0,1-.9,1.55.65.65,0,0,1-.71-.14.74.74,0,0,1-.16-.71.4.4,0,0,1,.39-.24.41.41,0,0,1,.22.19.66.66,0,0,1,0,.44.17.17,0,0,0,.16.08.87.87,0,0,0,.57-.72,1,1,0,0,0-.21-.94.64.64,0,0,0-.68-.18c-.25,0-.39.34-.51.35-.05-.23.12-.4.17-.6.18-.4-.18-.71-.44-1h-.12c-.21.26-.54.5-.5.84s.21.52.17.75a1.42,1.42,0,0,0-.55-.34.79.79,0,0,0-.69.34,1.25,1.25,0,0,0,.11,1.35.39.39,0,0,0,.41.15c.06-.13,0-.31,0-.47a.41.41,0,0,1,.22-.25c.16-.07.29,0,.4.16a.71.71,0,0,1-.12.75.86.86,0,0,1-.67.25,1.64,1.64,0,0,1-1-1.43c-.14-.35.41-.32.26-.69,0-.18-.39-.28-.39-.28l-.26-1h-.52a4.69,4.69,0,0,1,.1,1c-.05.08-.11.08-.21.16s-.07.23-.05.37.31.16.43.32a1.49,1.49,0,0,1-.35,1.35.84.84,0,0,1-.72.22.88.88,0,0,1-.65-.5.53.53,0,0,1,.08-.6.24.24,0,0,1,.3-.06c.24.11.27.39.29.63a.17.17,0,0,0,.18.1,1.06,1.06,0,0,0,.4-.75,1.23,1.23,0,0,0-.52-1.08.7.7,0,0,0-.63.08c-.14.11-.19.29-.33.35a6,6,0,0,0-.16-.64l-1.06-.65Z"/><path class="cls-1" d="M339.39,36.92c-.48,1.18-1.79,1.5-2.94,1.66A13.62,13.62,0,0,1,329.74,37c-.17-.08-.32-.19-.48-.28a12.56,12.56,0,0,1,8.62-1.33,3.05,3.05,0,0,1,1.31.68.93.93,0,0,1,.2.81m-19,6.37a21.56,21.56,0,0,0-6.45-7,28.57,28.57,0,0,0,6.27-6.71l.16-.23a22.21,22.21,0,0,0,6.49,7.06,27.11,27.11,0,0,0-6.47,6.88m1,3.73c1,2.42,1.94,6,.21,8.4a1.24,1.24,0,0,1-1.18.49c-.82-.35-1-1.28-1.19-2a14.16,14.16,0,0,1,1.51-8.16,10,10,0,0,1,.65,1.31m-3.13-27.09a4.54,4.54,0,0,1,1.32-3.06,1.11,1.11,0,0,1,.77-.15,1.56,1.56,0,0,1,.76.63c1.12,2,.56,4.87,0,7a24.68,24.68,0,0,1-1,2.51,14,14,0,0,1-1.83-6.91m-6.72,16c-2.61,1.3-6,2.24-9,1.14-.46-.23-1.06-.53-1.09-1.12.21-1.23,1.57-1.65,2.62-1.85a13,13,0,0,1,7.42,1.78Zm28.58-.22a3.69,3.69,0,0,0-2.49-2c-3.57-.75-6.94.51-9.84,2.1a21.4,21.4,0,0,1-6.85-7.41A21.26,21.26,0,0,0,322,26.09c1-2.51,1.88-5.85.61-8.52a2.64,2.64,0,0,0-2.5-1.63c-1.61.32-2.3,2-2.51,3.48a17,17,0,0,0,1.91,8.33,25.41,25.41,0,0,1-7.08,7.64,29.86,29.86,0,0,0-3.26-1.29c-2.43-.63-5.57-1.33-7.67.47a2.15,2.15,0,0,0-.74,2.24c.56,1.58,2.29,2.11,3.8,2.28A15.73,15.73,0,0,0,313,36.82a21.75,21.75,0,0,1,6.83,7.32,21.29,21.29,0,0,0-1.5,3.3c-.82,2.37-1.53,5.66-.08,8a2.53,2.53,0,0,0,2.22,1.28c1.31-.15,2.05-1.47,2.37-2.58.71-3.28-.38-6.39-1.62-9.15-.15-.22.13-.37.2-.55a26.31,26.31,0,0,1,6.9-7.17,19.61,19.61,0,0,0,2.81,1.17c2.51.7,6.1,1.57,8.28-.44a2.21,2.21,0,0,0,.62-2.26"/><path class="cls-1" d="M318.69,3.45a.46.46,0,1,0,0-.92.46.46,0,0,0,0,.92"/><path class="cls-1" d="M317.52,3.75a.47.47,0,1,0-.47-.47.47.47,0,0,0,.47.47"/><path class="cls-1" d="M316.46,4.2a.47.47,0,1,0-.46-.46.46.46,0,0,0,.46.46"/><path class="cls-1" d="M315.45,4.8a.46.46,0,1,0-.46-.46.46.46,0,0,0,.46.46"/><path class="cls-1" d="M314.61,5.61a.47.47,0,1,0-.46-.47.47.47,0,0,0,.46.47"/><path class="cls-1" d="M322.1,3.51a.47.47,0,1,0-.46-.47.47.47,0,0,0,.46.47"/><path class="cls-1" d="M323.28,3.8a.47.47,0,0,0,.46-.46.46.46,0,0,0-.46-.46.45.45,0,0,0-.46.46.46.46,0,0,0,.46.46"/><path class="cls-1" d="M324.33,4.25a.46.46,0,0,0,.47-.46.47.47,0,0,0-.93,0,.46.46,0,0,0,.46.46"/><path class="cls-1" d="M325.34,4.86a.47.47,0,1,0-.46-.47.47.47,0,0,0,.46.47"/><path class="cls-1" d="M326.18,5.66a.46.46,0,1,0-.46-.46.45.45,0,0,0,.46.46"/><path d="M46.1,12.21V0H0V12.14C0,16.07,0,18,.14,22.66c1.68,19.93,14.66,29.75,22.94,34,8.21-4.28,21.26-14.17,23-34,.07-4.56.07-6.52.07-10.45m-.77,10.45C43.64,42.17,30.8,51.92,23.08,56,15.37,51.85,2.45,42.17.84,22.66.63,18,.63,16,.7,12.21V.7H45.47V12.21c0,3.79,0,5.82-.14,10.45m-6.81-8.49a11.36,11.36,0,0,0,5.82-2V7.86c-.07-.07-.21-.07-.35-.14.21.49-.21.84-.42,1.12s-.07,1,.56,1.33a1.39,1.39,0,0,1-1.47-1.12c-.14-1,.63-1,.35-1.82-.28.42-.84.28-1.19.21s-.91.42-.91,1.19a1.36,1.36,0,0,1,.21-1.82c.77-.64,1.19.07,1.75-.64-.63,0-.77-.56-.91-.91s-.84-.56-1.48-.21a1.29,1.29,0,0,1,1.69-.7c1,.35.56,1.05,1.4,1.19-.21-.49.21-.84.42-1.12.42-.42.21-1-.49-1.4a1.26,1.26,0,0,1,.84.21V1.75H1.75V5.4a.54.54,0,0,0,.36.14c-.22-.49.2-.84.42-1.12S2.6,3.37,2,3A1.39,1.39,0,0,1,3.44,4.14C3.58,5.19,2.81,5.19,3.09,6c.28-.42.84-.28,1.19-.21s.91-.42.91-1.19A1.38,1.38,0,0,1,5,6.38c-.77.71-1.19,0-1.68.71.49.07.63.63.77,1s.84.56,1.47.21A1.28,1.28,0,0,1,3.86,9c-1-.35-.56-1.05-1.41-1.19.22.49-.21.84-.42,1.12s-.07,1,.57,1.33a1,1,0,0,1-.78-.14v2.11a11.41,11.41,0,0,0,5.83,2c5.89,0,6.66-2.8,11.57-2.8A6.5,6.5,0,0,1,23.08,13a6.8,6.8,0,0,1,3.86-1.61c4.84,0,5.69,2.8,11.58,2.8M14.31,7.09c.49.07.63.63.78,1s.84.56,1.47.21a1.28,1.28,0,0,1-1.68.7c-1-.35-.57-1.05-1.41-1.19.21.49-.21.84-.42,1.12s-.07,1,.56,1.33a1.39,1.39,0,0,1-1.47-1.12c-.14-1,.63-1,.35-1.82-.28.42-.84.28-1.19.21-.5-.07-.92.42-.92,1.19a1.38,1.38,0,0,1,.21-1.82c.78-.64,1.2.07,1.76-.64-.49-.07-.63-.63-.77-1s-.85-.56-1.48-.21a1.29,1.29,0,0,1,1.69-.7c1,.35.56,1.05,1.4,1.19-.21-.49.21-.84.42-1.12s.07-1-.56-1.33a1.39,1.39,0,0,1,1.47,1.12c.14,1-.63,1-.35,1.82.28-.42.84-.28,1.2-.21s.91-.42.91-1.19a1.38,1.38,0,0,1-.21,1.82c-.85.64-1.27-.07-1.76.64m9.83,0c.49.07.63.63.77,1s.84.56,1.47.21A1.28,1.28,0,0,1,24.7,9c-1-.35-.56-1.05-1.41-1.19.22.49-.21.84-.42,1.12s-.07,1,.56,1.33A1.39,1.39,0,0,1,22,9.12c-.14-1,.63-1,.35-1.82-.28.42-.84.28-1.19.21s-.91.42-.91,1.19a1.38,1.38,0,0,1,.21-1.82c.77-.64,1.19.07,1.75-.64-.49-.07-.63-.63-.77-1s-.84-.56-1.47-.21a1.28,1.28,0,0,1,1.68-.7c1,.35.56,1.05,1.4,1.19-.21-.49.21-.84.42-1.12s.08-1-.56-1.33a1.4,1.4,0,0,1,1.48,1.12c.14,1-.64,1-.35,1.82.28-.42.84-.28,1.19-.21s.91-.42.91-1.19a1.38,1.38,0,0,1-.21,1.82c-.84.64-1.26-.07-1.75.64m10.17,0c.49.07.63.63.77,1s.84.56,1.47.21a1.28,1.28,0,0,1-1.68.7c-1-.35-.56-1.05-1.4-1.19.21.49-.21.84-.42,1.12s-.07,1,.56,1.33a1.4,1.4,0,0,1-1.48-1.12c-.14-1,.64-1,.36-1.82-.29.42-.85.28-1.2.21s-.91.42-.91,1.19a1.38,1.38,0,0,1,.21-1.82c.77-.64,1.19.07,1.75-.64-.49-.07-.63-.63-.77-1s-.84-.56-1.47-.21a1.28,1.28,0,0,1,1.68-.7c1,.35.56,1.05,1.41,1.19-.21-.49.21-.84.42-1.12s.07-1-.63-1.4a1.39,1.39,0,0,1,1.47,1.12c.14,1-.63,1-.35,1.82.28-.42.84-.28,1.19-.21s.91-.42.91-1.19A1.37,1.37,0,0,1,36,6.38c-.7.71-1.12,0-1.68.71M1.75,18.8c0,1.13.07,2.32.07,3.86a44.86,44.86,0,0,0,1.62,8.56,11.82,11.82,0,0,0,4.35.92,12.06,12.06,0,0,0,5.54-1.41c3.58-2,6.18-2,9.47,0l.14.07.14-.07c3.3-2,5.9-1.89,9.48,0a12,12,0,0,0,5.54,1.41,11.89,11.89,0,0,0,4.42-.92,43.38,43.38,0,0,0,1.61-8.49c.07-1.54.07-2.8.07-3.93A13.09,13.09,0,0,1,33,19.37C29.26,18,26.1,17.68,22.87,20.42c-3.22-2.74-6.38-2.39-10.1-1.05a13.7,13.7,0,0,1-11-.57m31.86,6,1.47-1.34-.91-.77c-.07-.07-.07-.14-.07-.28s.07-.14.21-.14h1.12a.7.7,0,0,1,.56-.42.53.53,0,0,1,.56.42h1.2c.07,0,.14.07.21.14a.42.42,0,0,1-.07.28l-.84.77c.07.08.77.71,1.47,1.34.14.07,1.26.91.7,1.89a.72.72,0,0,1-.7.42,1.18,1.18,0,0,1-.91.92.64.64,0,0,1-.56-.14,1,1,0,0,1-.5.42,1,1,0,0,1-.49.07,1.11,1.11,0,0,1-1-.56.64.64,0,0,1-.56.14,1.18,1.18,0,0,1-.91-.92.9.9,0,0,1-.7-.42c-.57-.84.56-1.68.7-1.82m-13,0L22,23.5l-.91-.77c-.07,0-.07-.14-.07-.21s.07-.14.21-.14h1.12a.7.7,0,0,1,.56-.42.55.55,0,0,1,.57.42H24.7c.07,0,.14.07.21.14a.42.42,0,0,1-.07.28l-.84.78,1.47,1.33c.14.07,1.26.91.7,1.89a.72.72,0,0,1-.7.42,1.43,1.43,0,0,1-.91.85.64.64,0,0,1-.56-.14,1,1,0,0,1-.49.42A1.27,1.27,0,0,1,22,27.86a.77.77,0,0,1-.63.21,1.18,1.18,0,0,1-.91-.92.9.9,0,0,1-.7-.42c-.5-.91.63-1.75.77-1.89m-13,0L9,23.5l-.91-.77C8,22.66,8,22.59,8,22.45s.07-.14.21-.14H9.33a.7.7,0,0,1,.56-.42.53.53,0,0,1,.56.42h1.2c.07,0,.14.07.21.14a.42.42,0,0,1-.07.28l-.85.77c.07.08.78.71,1.48,1.34.14.07,1.26.91.7,1.89a.72.72,0,0,1-.7.42,1.18,1.18,0,0,1-.91.92.67.67,0,0,1-.57-.14,1,1,0,0,1-.49.42,1,1,0,0,1-.49.07,1.11,1.11,0,0,1-1-.56.59.59,0,0,1-.56.21,1.18,1.18,0,0,1-.91-.92.9.9,0,0,1-.7-.42c-.57-.91.63-1.75.7-1.89M6.31,38.17A40.66,40.66,0,0,0,23,54.52a48.69,48.69,0,0,0,6.74-4.42,38,38,0,0,0,10-11.93,14.94,14.94,0,0,1-7.15-1c-4.35-1.83-7.16-1.76-9.62.14-2.45-1.9-5.26-2-9.61-.14a16.13,16.13,0,0,1-7,1M26,43.29a1.38,1.38,0,0,1,.21-1.82c.77-.63,1.19.07,1.76-.63-.5-.07-.64-.64-.78-1s-.84-.56-1.47-.21a1.28,1.28,0,0,1,1.68-.7c1,.35.57,1.05,1.41,1.19-.21-.49.21-.84.42-1.12s.07-1-.56-1.33A1.39,1.39,0,0,1,30.1,38.8c.14,1.05-.63,1-.35,1.83.28-.43.84-.29,1.19-.22s.91-.42.91-1.19a1.39,1.39,0,0,1-.21,1.83c-.77.63-1.19-.07-1.75.63.49.07.63.63.77,1s.84.56,1.47.21a1.28,1.28,0,0,1-1.68.7c-1-.35-.56-1-1.4-1.19.21.49-.21.84-.42,1.12s-.07,1,.56,1.33a1.39,1.39,0,0,1-1.48-1.12c-.14-1.05.64-1,.35-1.82-.28.42-.84.28-1.19.21-.56-.07-1,.42-.91,1.19m-4,4.84c-.49-.07-.63-.63-.77-1s-.84-.56-1.47-.21a1.28,1.28,0,0,1,1.68-.7c1,.35.56,1,1.4,1.19-.21-.49.21-.84.42-1.12s.07-1-.56-1.33a1.4,1.4,0,0,1,1.48,1.12c.14,1-.63,1-.36,1.82.29-.42.85-.28,1.2-.21s.91-.42.91-1.19a1.38,1.38,0,0,1-.21,1.82c-.77.63-1.19-.07-1.75.63.49.07.63.64.77,1s.84.56,1.47.21a1.28,1.28,0,0,1-1.68.7c-1-.35-.56-1-1.41-1.19.21.49-.21.84-.42,1.12s-.07,1,.56,1.33A1.39,1.39,0,0,1,21.75,51c-.14-1,.63-1,.35-1.82-.28.42-.84.28-1.19.21s-.91.42-.91,1.19a1.39,1.39,0,0,1,.21-1.83c.84-.63,1.26.07,1.75-.63m-6-7.29c-.49-.07-.64-.64-.78-1s-.84-.56-1.47-.21a1.29,1.29,0,0,1,1.69-.7c1,.35.56,1.05,1.4,1.19-.21-.49.21-.84.42-1.12s.07-1-.56-1.33A1.39,1.39,0,0,1,18.1,38.8c.14,1.05-.63,1-.35,1.83.28-.43.84-.29,1.19-.22s.92-.42.92-1.19a1.39,1.39,0,0,1-.21,1.83c-.78.63-1.2-.07-1.76.63.49.07.63.63.77,1s.85.56,1.48.21a1.29,1.29,0,0,1-1.69.7c-1-.35-.56-1-1.4-1.19.21.49-.21.84-.42,1.12s-.07,1,.56,1.33a1.38,1.38,0,0,1-1.47-1.12c-.14-1.05.63-1,.35-1.82-.28.42-.85.28-1.19.21-.5-.07-.92.42-.92,1.19a1.38,1.38,0,0,1,.21-1.82c.84-.7,1.27.07,1.76-.63"/><path d="M62.45,26.52c-.14.07-.14.35-.14.77s.07.64.14.64a6.73,6.73,0,0,1,1.61.35c.77.21,1.19.49,1.26.7a17.86,17.86,0,0,1,.28,3.44v16a14.23,14.23,0,0,1-.28,3.86q-.21.42-1.26.63a5.63,5.63,0,0,1-1.61.29c-.07,0-.14.21-.14.7a1.63,1.63,0,0,0,.14.77l.84-.07c.56,0,1.33-.07,2.24-.14s1.83-.07,2.53-.07c.91,0,2.88.07,6,.28a2,2,0,0,0,.07-.7c0-.49-.07-.7-.14-.7a8.72,8.72,0,0,1-1.89-.36c-.84-.21-1.33-.49-1.4-.84a13.51,13.51,0,0,1-.36-3.58V33.33c0-2.74.15-4.21.5-4.42a6.56,6.56,0,0,1,2.45-.28,4.12,4.12,0,0,1,3.51,1.61,7.76,7.76,0,0,1,1.12,4.49,7.27,7.27,0,0,1-1.19,4.21,3.68,3.68,0,0,1-3.23,1.69,6.09,6.09,0,0,1-2.38-.43c-.07,0-.07.08-.14.29v.63c.07.21.07.35.14.42a2.69,2.69,0,0,0,1.19.77,5.19,5.19,0,0,0,1.75.35,8.35,8.35,0,0,0,4.7-1.33,9.17,9.17,0,0,0,3.16-3.23,8,8,0,0,0,1.05-3.86,7.1,7.1,0,0,0-.63-3A7.48,7.48,0,0,0,80.76,29a9.68,9.68,0,0,0-2.18-1.47,8.63,8.63,0,0,0-2.52-.85,15.42,15.42,0,0,0-2.53-.21c-.84,0-1.82,0-2.87.07a16.25,16.25,0,0,1-2.6.14c-.77,0-2.67-.07-5.61-.14m29.89,2.32c.07-.21.49-.42,1.19-.63a8.13,8.13,0,0,1,1.54-.35c.14,0,.14-.21.14-.71a3.08,3.08,0,0,0-.14-.7c-3.37.14-5.19.28-5.4.28-.77,0-1.82-.07-3.3-.14s-2.17-.14-2.31-.14-.07.28-.07.77.07.64.14.64a4.14,4.14,0,0,1,1.54.35,2.19,2.19,0,0,1,1.19.63,13.62,13.62,0,0,1,.35,3.58v16a15.29,15.29,0,0,1-.28,3.86c-.14.28-.49.49-1.19.63a5.63,5.63,0,0,1-1.61.29c-.07,0-.14.21-.14.7a1.51,1.51,0,0,0,.14.7l5.61-.14c1.4-.07,3.93-.07,7.44.07s5.89.14,7,.14c.07-.42.21-1,.36-1.61a11.44,11.44,0,0,1,.56-1.69c.14-.49.42-1.12.77-2s.56-1.48.63-1.76a1.91,1.91,0,0,0-1.19-.28c-.35,0-.56.07-.56.28a8.54,8.54,0,0,1-1.34,2.6,4.2,4.2,0,0,1-1.54,1.47,11.6,11.6,0,0,1-5,.91H95.28c-1.75,0-2.73-.21-2.87-.56a11.25,11.25,0,0,1-.35-3.37V32.56a13.75,13.75,0,0,1,.28-3.72m21.82,12.63a2.2,2.2,0,0,1,.28.84v6.24a15.73,15.73,0,0,1-.35,3.72c-.07.21-.49.42-1.2.7a4,4,0,0,1-1.54.36c-.07,0-.14.21-.14.7a1.51,1.51,0,0,0,.14.7c.28,0,1.12-.07,2.46-.14s2.31-.14,3.08-.14a15.31,15.31,0,0,1,1.76.07c.56,0,1.26.07,2,.14s1.27.07,1.62.14a2,2,0,0,0,.07-.7c0-.42-.07-.7-.14-.7a7.62,7.62,0,0,1-1.41-.35,2.43,2.43,0,0,1-1.19-.64,16.42,16.42,0,0,1-.35-3.79V42c0-.35,1.05-2.25,3.16-5.68s3.58-5.76,4.42-7a3.33,3.33,0,0,1,1.61-1,5.06,5.06,0,0,1,1.76-.35c.14,0,.14-.21.14-.71a2.63,2.63,0,0,0-.07-.7c-.29,0-.78.07-1.27.07s-1.05.07-1.61.14-1.12.07-1.76.07-2.24-.07-5-.28a1.63,1.63,0,0,0-.14.77c0,.43.07.57.14.57a5.35,5.35,0,0,1,2,.35c.49.21.77.49.77.84s-.56,1.68-1.68,3.65-2.32,3.79-3.51,5.54c-.14.21-.28.21-.42.07l-4.49-8.21a2.15,2.15,0,0,1-.36-1.12c0-.42.29-.7.85-.91a4.23,4.23,0,0,1,1.54-.28c.07,0,.14-.21.14-.57a2,2,0,0,0-.07-.77c-3.37.14-5.33.28-5.82.28-3,0-4.91,0-5.55.07a1.23,1.23,0,0,0-.07.57c0,.28.07.42.14.42a5.35,5.35,0,0,1,1.2.21,3.55,3.55,0,0,1,1.26.56,7.84,7.84,0,0,1,2.17,2.94m27.09,17.2a7.1,7.1,0,0,1-.49,2.8c-.14.42-.7.84-1.62,1.12a8,8,0,0,1-2.1.43c-.14,0-.14.21-.14.7a1.51,1.51,0,0,0,.14.7c.28,0,1.05-.07,2.31-.14s2.25-.14,3-.14c.14,0,2,.07,5.33.28a1.55,1.55,0,0,0,.07-.63c0-.49-.07-.77-.14-.77a8.5,8.5,0,0,1-2-.43c-1-.28-1.54-.56-1.69-.91a5.43,5.43,0,0,1-.14-1.33c.29-5.54.5-11.86.71-18.81l9.47,22.74a.89.89,0,0,0,.42.07c.56,0,1.12-.56,1.61-1.62l8.07-19.64c.07-.14.14-.28.21-.28s.42.84.49,2.59l.42,12.84V50.8a2.3,2.3,0,0,1-.42,1.47,3,3,0,0,1-1.19.63,3.88,3.88,0,0,1-1.33.29c-.14,0-.14.28-.14.77a1.4,1.4,0,0,0,.14.63c.42,0,1.05-.07,1.82-.14s1.41-.07,2-.07,1.19-.07,1.75-.07c.07,0,1.83.07,5.19.28a1.55,1.55,0,0,0,.07-.63c0-.49-.07-.77-.14-.77a5.33,5.33,0,0,1-1.4-.36c-.7-.21-1.05-.42-1.19-.7a12.2,12.2,0,0,1-.7-3.86c-.29-9.12-.5-14.94-.57-17.47-.07-1.19.14-2,.57-2.24a3.74,3.74,0,0,1,2-.7h.07c.14,0,.14-.21.14-.71a1.51,1.51,0,0,0-.14-.7c-2.25.14-3.93.21-5.05.21-1.48,0-2.6-.07-3.44-.14l-1.54,4.91c-1.48,3.86-3.44,8.7-5.9,14.67a.15.15,0,0,1-.14.14c-.07,0-.14,0-.14-.07-.77-2-1.82-4.49-3.16-7.51s-2.38-5.61-3.29-7.79-1.48-3.58-1.76-4.35c-2.59.14-4,.28-4.14.28a19.31,19.31,0,0,1-2.66-.14c-1.06-.07-1.76-.14-2.18-.14-.14.14-.14.35-.14.63,0,.5.07.71.14.71a8.29,8.29,0,0,1,1.83.28c.84.21,1.33.42,1.4.63a4.57,4.57,0,0,1,.14,1.19c0,.49-.07,1.75-.14,3.86m50.59-3.44a11.69,11.69,0,0,1,2.94,4.91,21.13,21.13,0,0,1,.85,6.11,15.34,15.34,0,0,1-2,8,6.15,6.15,0,0,1-5.54,3.36,6.73,6.73,0,0,1-5-2.1,11.17,11.17,0,0,1-3-5,21.34,21.34,0,0,1-.84-6,15.76,15.76,0,0,1,1.89-8,6.15,6.15,0,0,1,5.55-3.29,7.13,7.13,0,0,1,5.05,2m-4.42,24.49a12.66,12.66,0,0,0,9.54-4.21,14.15,14.15,0,0,0,4-10.1,14.15,14.15,0,0,0-4-10.11,12.91,12.91,0,0,0-19.08,0,14.15,14.15,0,0,0-4,10.11,14.15,14.15,0,0,0,4,10.1,12.54,12.54,0,0,0,9.54,4.21M197,26.45a1.43,1.43,0,0,0-.14.77c0,.43.07.64.14.64a4.22,4.22,0,0,1,1.55.35,2.19,2.19,0,0,1,1.19.63,12.17,12.17,0,0,1,.35,3.58v9.19c0,4.56,1,7.79,2.95,9.89a10.59,10.59,0,0,0,8,3.09,13.38,13.38,0,0,0,4.28-.63,9.19,9.19,0,0,0,3.37-2A8.29,8.29,0,0,0,221,48.13a17.39,17.39,0,0,0,.77-5.68v-10a8.64,8.64,0,0,1,.49-3.51,2.85,2.85,0,0,1,1.61-.84,8.93,8.93,0,0,1,1.83-.35c.14,0,.14-.21.14-.71a2.16,2.16,0,0,0-.07-.7c-.28,0-1,.07-2.18.14s-2.1.14-2.8.14c-.49,0-2.25-.07-5.33-.28a1.09,1.09,0,0,0-.08.77c0,.43.08.57.22.57a9.65,9.65,0,0,1,1.82.35c.84.21,1.33.49,1.47.77a8.76,8.76,0,0,1,.42,3.37V42.52c0,3.3-.63,5.68-2,7.09a6.77,6.77,0,0,1-5.19,2.1,6,6,0,0,1-5.19-2.59,11.6,11.6,0,0,1-1.9-6.95V32.56a16.17,16.17,0,0,1,.35-3.72c0-.21.42-.42,1.19-.63a8.34,8.34,0,0,1,1.55-.35c.14,0,.14-.21.14-.71a2.63,2.63,0,0,0-.07-.7c-3.09.14-4.91.28-5.4.28-.29,0-2.18-.07-5.76-.28m34.31,0a14.55,14.55,0,0,1-2.94-.42l-.78,6.39a1.53,1.53,0,0,0,1.13.35c.28,0,.42-.07.42-.28a6.24,6.24,0,0,1,1.61-3.09,4.56,4.56,0,0,1,3-.84c2.45,0,3.79.21,4,.7s.35,1.75.35,4.07V48.62a14.17,14.17,0,0,1-.35,3.51c-.07.21-.49.42-1.2.63a6,6,0,0,1-1.61.29c-.14,0-.14.28-.14.77a1.51,1.51,0,0,0,.14.7c.28,0,1.12-.07,2.46-.14s2.38-.14,3.15-.14a15.31,15.31,0,0,1,1.76.07c.63,0,1.26.07,2,.14s1.27.07,1.62.14a2,2,0,0,0,.07-.7c0-.49-.07-.77-.14-.77a7,7,0,0,1-1.48-.36c-.7-.21-1.12-.42-1.12-.63a13.35,13.35,0,0,1-.35-3.65V33.33a17.65,17.65,0,0,1,.35-4c.14-.49,1.47-.7,4.07-.7a4.45,4.45,0,0,1,3,.84,6,6,0,0,1,1.54,3.16.42.42,0,0,0,.42.21,1.54,1.54,0,0,0,1.12-.28l-.77-6.46a13.93,13.93,0,0,1-2.94.42c-1.13,0-2.67.07-4.64.14s-3.5.14-4.7.14-2.73,0-4.63-.14c-1.75-.07-3.3-.14-4.42-.21m50,26.38c-.7-.21-1.12-.42-1.19-.63a14.48,14.48,0,0,1-.35-3.79V32.56a16.17,16.17,0,0,1,.35-3.72c.07-.21.49-.42,1.19-.63a8.13,8.13,0,0,1,1.54-.35c.14,0,.14-.21.14-.71a3.08,3.08,0,0,0-.14-.7c-3.36.14-5.19.28-5.4.28-.77,0-1.82-.07-3.3-.14s-2.17-.14-2.31-.14-.07.28-.07.77.07.64.14.64a4.14,4.14,0,0,1,1.54.35,2.19,2.19,0,0,1,1.19.63,13.24,13.24,0,0,1,.35,3.58v6.31c0,.07,0,.14-.07.14-2.52.07-4.42.07-5.54.07s-3,0-5.75-.07l-.07-.14V32.56a16.17,16.17,0,0,1,.35-3.72c.07-.21.49-.42,1.19-.63a8,8,0,0,1,1.55-.35c.14,0,.14-.21.14-.71a3.08,3.08,0,0,0-.14-.7c-3.37.14-5.2.28-5.41.28-.77,0-1.82-.07-3.3-.14s-2.17-.14-2.31-.14-.07.28-.07.77.07.64.14.64a4.14,4.14,0,0,1,1.54.35,2.23,2.23,0,0,1,1.2.63,13.24,13.24,0,0,1,.35,3.58V48.69a16.15,16.15,0,0,1-.35,3.58c-.07.21-.5.42-1.2.63a5.63,5.63,0,0,1-1.61.29c-.14,0-.14.28-.14.77a.9.9,0,0,0,.14.56c.42,0,1.05-.07,1.82-.14s1.41-.07,2-.07,1.19-.07,1.75-.07c.21,0,2,.07,5.34.28a1.36,1.36,0,0,0,.07-.56c0-.56-.07-.77-.15-.77a6.38,6.38,0,0,1-1.47-.36c-.7-.21-1.12-.42-1.19-.63a14.48,14.48,0,0,1-.35-3.79v-7c0-.07,2-.14,5.82-.21,1,0,2.95,0,5.54.07l.07.14v7.29a16.15,16.15,0,0,1-.35,3.58c-.07.21-.49.42-1.19.63a5.63,5.63,0,0,1-1.61.29c-.14,0-.14.28-.14.77a.9.9,0,0,0,.14.56c.42,0,1.05-.07,1.82-.14s1.4-.07,2-.07,1.19-.07,1.75-.07c.21,0,2,.07,5.33.28a1.36,1.36,0,0,0,.07-.56c0-.56-.07-.77-.14-.77a8.58,8.58,0,0,1-1.33-.36"/><path d="M62.52.28c-.07.07-.07.28-.07.56s.07.49.14.49a4.85,4.85,0,0,1,1.12.21c.49.14.77.28.84.5a9.62,9.62,0,0,1,.21,2.52v6.67c0,3.29.7,5.61,2.11,7.08a7.47,7.47,0,0,0,5.75,2.18A8.72,8.72,0,0,0,75.71,20a6.28,6.28,0,0,0,2.45-1.48,5.81,5.81,0,0,0,1.62-2.73,14,14,0,0,0,.56-4.07V4.63a6.88,6.88,0,0,1,.35-2.52,1.85,1.85,0,0,1,1.12-.64,6.23,6.23,0,0,1,1.33-.21c.07,0,.14-.14.14-.49a1,1,0,0,0-.07-.49c-.21,0-.7.07-1.54.14s-1.54.14-2,.14S78,.49,75.78.35c-.07.07-.07.28-.07.56s.07.42.14.42a3.75,3.75,0,0,1,1.26.28c.63.14,1,.35,1,.57a6.1,6.1,0,0,1,.28,2.45v7.3c0,2.38-.49,4.07-1.4,5.12a4.74,4.74,0,0,1-3.79,1.54,4.42,4.42,0,0,1-3.79-1.89,8.38,8.38,0,0,1-1.33-5v-7A12.21,12.21,0,0,1,68.34,2c0-.15.28-.36.84-.5a5.59,5.59,0,0,1,1.12-.21c.07,0,.14-.14.14-.49a1.19,1.19,0,0,0-.07-.49c-2.24.14-3.5.21-3.92.21A34.33,34.33,0,0,0,62.52.28m30.94,3.3A23.59,23.59,0,0,1,91.35.35c-1.12.07-2.1.14-2.73.14C88.34.49,87.14.42,85,.35a.9.9,0,0,0-.14.56c0,.28.07.49.14.49a6.93,6.93,0,0,1,1.33.21c.63.14,1,.28,1,.43a5.2,5.2,0,0,1,.36,2.24V16.21a6.7,6.7,0,0,1-.29,2.52,1.73,1.73,0,0,1-1.12.71,6.16,6.16,0,0,1-1.4.21c-.07,0-.14.14-.14.49a.67.67,0,0,0,.14.49c.28,0,.77-.07,1.61-.14s1.48-.07,2-.07l3.79.21c.07-.07.07-.28.07-.56s-.07-.42-.14-.42a5.26,5.26,0,0,1-1.41-.28c-.63-.14-1-.36-1.12-.64a9.62,9.62,0,0,1-.21-2.52V3.86l12.14,16.07c.35.49.63.7,1,.7a1.51,1.51,0,0,0,.7-.14c-.07-2.11-.14-3.51-.14-4.28V4.7a7.44,7.44,0,0,1,.35-2.52,1.85,1.85,0,0,1,1.12-.64A6.39,6.39,0,0,1,106,1.33c.07,0,.14-.14.14-.49s0-.42-.07-.49-.7.07-1.55.14-1.54.14-2,.14S100.83.56,98.65.42c-.07.07-.07.28-.07.56s.07.42.14.42a5.65,5.65,0,0,1,1.33.21,1.74,1.74,0,0,1,1.06.57,7.3,7.3,0,0,1,.28,2.45v8.28a6.06,6.06,0,0,1-.07,1.26m8.77,2.18a12.08,12.08,0,0,1-.21,2.52c-.07.14-.35.29-.84.5a5,5,0,0,1-1.13.21c-.07,0-.14.21-.14.56a.59.59,0,0,0,.14.42c.35,0,.77-.07,1.27-.07s1-.07,1.47-.07h1.26l3.86.21a.89.89,0,0,0,.07-.42c0-.35-.07-.56-.14-.56a4.45,4.45,0,0,1-1-.21c-.49-.14-.77-.28-.84-.43a9.9,9.9,0,0,1-.28-2.73V4.7A13.12,13.12,0,0,1,113.74,2c.07-.15.35-.29.91-.5a5.59,5.59,0,0,1,1.12-.21c.07,0,.14-.14.14-.49a1.37,1.37,0,0,0-.07-.49c-2.45.14-3.72.21-3.93.21-.56,0-1.33,0-2.38-.07s-1.62-.07-1.69-.07-.07.21-.07.56.07.49.14.49a5,5,0,0,1,1.13.21c.49.14.77.28.84.5a10.38,10.38,0,0,1,.21,2.52Zm15.85-7.72a44.55,44.55,0,0,1-2.31-6.24.69.69,0,0,1,.42-.64,4.28,4.28,0,0,1,.84-.35,2.41,2.41,0,0,1,.63-.07c.07,0,.14-.14.14-.42s0-.49-.07-.56c-2.52.14-3.86.21-4.14.21-.56,0-1.33,0-2.31-.07S117.6.42,117.45.42s-.07.28-.07.56.07.49.14.49a4.71,4.71,0,0,1,1.2.21,1.34,1.34,0,0,1,.91.64,20.67,20.67,0,0,1,1.12,2.73L127,20.63a.53.53,0,0,0,.49.28c.49,0,.91-.35,1.19-1.12L135,5a15,15,0,0,1,1.33-2.66,1.93,1.93,0,0,1,1-.64,3.45,3.45,0,0,1,1.05-.21c.07,0,.07-.14.07-.49a1,1,0,0,0-.07-.49c-.28,0-.77.07-1.47.14a17.75,17.75,0,0,1-1.82.07c-.49,0-1.13,0-1.9-.07S132,.56,131.77.56s-.07.28-.07.56,0,.42.14.42a3.66,3.66,0,0,1,1.47.28c.49.22.7.5.7.85a6.35,6.35,0,0,1-.63,2.1L129,15.3c0,.07-.14-.21-.42-.71M139.84.35a.9.9,0,0,0-.14.56c0,.28.07.49.14.49a4.72,4.72,0,0,1,1.19.21c.49.14.77.35.84.57a9.62,9.62,0,0,1,.21,2.52V16.14a12,12,0,0,1-.21,2.8c-.07.22-.35.36-.91.5a4.85,4.85,0,0,1-1.12.21c-.07,0-.07.14-.07.49s0,.42.07.49l4.07-.14c1.05-.07,2.8,0,5.4,0s4.21.07,5.05.07c.07-.28.14-.7.28-1.19a12.59,12.59,0,0,1,.42-1.27c.14-.35.28-.84.56-1.47s.36-1,.43-1.26a1.27,1.27,0,0,0-.85-.21q-.42,0-.42.21a6.33,6.33,0,0,1-.91,1.82,3,3,0,0,1-1.12,1,8.34,8.34,0,0,1-3.65.63H148c-1.27,0-2-.14-2.11-.42a7.3,7.3,0,0,1-.28-2.45V11.3c0-.14.7-.21,2.18-.21a9.69,9.69,0,0,1,2.8.21,1,1,0,0,1,.28.21c.07.07.07.14.21.42a8.54,8.54,0,0,1,.35,1.19c.07.14.21.21.5.21a.9.9,0,0,0,.56-.14V7.44a.9.9,0,0,0-.56-.14c-.29,0-.5.07-.5.21s-.14.49-.21.77c-.14.63-.28,1-.49,1.05a9.65,9.65,0,0,1-2.1.14h-1.76c-.91,0-1.33-.07-1.33-.21V4.63a10.92,10.92,0,0,1,.21-2.45c.07-.29.84-.43,2.32-.43h1.61a3.93,3.93,0,0,1,3.93,2.74.42.42,0,0,0,.42.21,1,1,0,0,0,.63-.14c0-.07-.14-.7-.42-1.75s-.42-2-.49-2.53c-1.12,0-2.88.07-5.12.14s-3.86.14-4.7.14L139.84.35M168.39,6a3.92,3.92,0,0,1-.91,2.74,2.66,2.66,0,0,1-2,1.05h-.77a3.7,3.7,0,0,1-1.41-.21c-.35-.14-.49-.42-.49-.91V5.19c0-2,.14-3.08.35-3.15a4.81,4.81,0,0,1,1.76-.22c2.31.07,3.5,1.48,3.5,4.21M163.13.42H161c-.56,0-1.9,0-4.07-.07-.07.07-.14.21-.14.56s.07.49.14.49a3.81,3.81,0,0,1,1.19.28,1.43,1.43,0,0,1,.91.5,10.38,10.38,0,0,1,.21,2.52V16.14a11.17,11.17,0,0,1-.21,2.8c-.07.22-.35.36-.91.5a4.72,4.72,0,0,1-1.19.21c-.07,0-.07.14-.07.49s0,.49.07.56l.63-.07c.42,0,1-.07,1.61-.07s1.27-.07,1.83-.07,2.1.07,4.35.21a1,1,0,0,0,.07-.49c0-.35-.07-.49-.14-.49a7.12,7.12,0,0,1-1.34-.21c-.63-.14-1-.35-1.05-.57a11.07,11.07,0,0,1-.21-2.59V12.07c0-.35.14-.49.49-.49a1.57,1.57,0,0,1,.7.07,1.07,1.07,0,0,1,.49.35c.15.14.36.42.64.7s.49.63.63.91.49.7.84,1.27a15.31,15.31,0,0,0,1,1.4A8.73,8.73,0,0,0,168.74,18a19.32,19.32,0,0,0,1.55,1.41,5.7,5.7,0,0,0,2.17,1.05,11.49,11.49,0,0,0,2.81.35,3.42,3.42,0,0,0,.91-.07,1.32,1.32,0,0,0,.14-.56,1,1,0,0,0-.14-.49,3.53,3.53,0,0,1-2.24-.92,13.9,13.9,0,0,1-2.32-2.24,45.77,45.77,0,0,1-3.44-5.19c-.07-.14-.07-.21.14-.28a6.16,6.16,0,0,0,2.6-2.11A5.28,5.28,0,0,0,172,5.82a4.23,4.23,0,0,0-.49-2.1,4.34,4.34,0,0,0-1.19-1.54,8.85,8.85,0,0,0-1.69-1,9.06,9.06,0,0,0-1.82-.56A6.82,6.82,0,0,0,165.1.49a5.55,5.55,0,0,0-2-.07m15.09,6.74a10.53,10.53,0,0,0,.63,1.26,7.41,7.41,0,0,0,1.05,1.12,9,9,0,0,0,1.19.91c.28.22.78.5,1.34.85.14.07.28.21.35.21a5.32,5.32,0,0,1,.91.56c.42.28.77.42,1,.56s.49.35.84.63a7.53,7.53,0,0,1,.78.7,4.26,4.26,0,0,1,.49.85,2.47,2.47,0,0,1,.21,1,3.18,3.18,0,0,1-.91,2.52,3.46,3.46,0,0,1-2.39.85,4,4,0,0,1-2-.5,3.33,3.33,0,0,1-1.41-1.19,10.55,10.55,0,0,1-.84-1.4,4.88,4.88,0,0,1-.42-1.19c-.07-.15-.35-.22-.91-.22-.28,0-.49.07-.49.22,0,.35.07,1,.21,2.17s.35,2,.49,2.74a29.1,29.1,0,0,0,5.61.84A7.06,7.06,0,0,0,188.46,19a4.85,4.85,0,0,0,2-4,6,6,0,0,0-.21-1.62,5.26,5.26,0,0,0-.57-1.26,4.06,4.06,0,0,0-.91-1.05c-.42-.35-.77-.64-1-.78a10.74,10.74,0,0,0-1.19-.7c-.56-.35-.92-.56-1.06-.63s-.42-.21-.84-.49-.77-.49-.91-.56-.35-.28-.77-.56-.63-.49-.77-.63-.28-.42-.49-.64a2.24,2.24,0,0,1-.43-.84,3.51,3.51,0,0,1-.14-.84,2.82,2.82,0,0,1,.78-2.1,2.64,2.64,0,0,1,2.17-.78,3.44,3.44,0,0,1,2.74,1.34,5.51,5.51,0,0,1,1.33,2.73c.07.21.35.28.91.28.21,0,.35-.07.35-.28a31.51,31.51,0,0,0-.35-4.7c-.28-.07-.77-.21-1.54-.35a7.53,7.53,0,0,0-1.76-.35,9.4,9.4,0,0,0-1.47-.07A6.75,6.75,0,0,0,180,1.68a4.84,4.84,0,0,0-1.89,3.86,2.55,2.55,0,0,0,.14,1.62M194,16.35a12.08,12.08,0,0,1-.21,2.52c-.07.14-.35.29-.84.5a4.85,4.85,0,0,1-1.12.21c-.07,0-.14.21-.14.56a.59.59,0,0,0,.14.42c.35,0,.77-.07,1.26-.07s1-.07,1.48-.07h1.26l3.86.21a.89.89,0,0,0,.07-.42c0-.35-.07-.56-.14-.56a4.6,4.6,0,0,1-1.06-.21c-.49-.14-.77-.28-.84-.43a9.9,9.9,0,0,1-.28-2.73V4.7A13.12,13.12,0,0,1,197.65,2c.07-.15.35-.29.91-.5a5.77,5.77,0,0,1,1.13-.21c.07,0,.14-.14.14-.49a1.37,1.37,0,0,0-.07-.49c-2.46.14-3.72.21-3.93.21-.56,0-1.33,0-2.39-.07s-1.61-.07-1.68-.07-.07.21-.07.56.07.49.14.49a4.85,4.85,0,0,1,1.12.21c.49.14.77.28.84.5A10.38,10.38,0,0,1,194,4.7ZM203.9.28A9.66,9.66,0,0,1,201.79,0l-.56,4.63a1.13,1.13,0,0,0,.77.21c.21,0,.28-.07.28-.21a4.72,4.72,0,0,1,1.13-2.24,3.16,3.16,0,0,1,2.17-.57c1.76,0,2.74.14,2.88.5a7.55,7.55,0,0,1,.28,2.94v11a11.19,11.19,0,0,1-.21,2.52c-.07.14-.35.29-.84.5a4.91,4.91,0,0,1-1.13.21c-.07,0-.14.21-.14.56a.82.82,0,0,0,.14.49c.21,0,.85-.07,1.76-.14s1.75-.07,2.24-.07h1.27c.42,0,.91.07,1.4.07s.91.07,1.19.07a1,1,0,0,0,.07-.49c0-.35-.07-.56-.14-.56a4.45,4.45,0,0,1-1-.21c-.56-.14-.77-.29-.84-.43a9.36,9.36,0,0,1-.28-2.66V5.26a9.75,9.75,0,0,1,.28-2.87c.07-.35,1-.5,2.94-.5a3.52,3.52,0,0,1,2.18.57A4.17,4.17,0,0,1,218.7,4.7a.36.36,0,0,0,.28.14,1.22,1.22,0,0,0,.84-.21L219.33,0a9.59,9.59,0,0,1-2.1.28c-.84,0-2,.07-3.3.14s-2.52.07-3.37.07-2,0-3.36-.07-2.46-.07-3.3-.14m24.77,10.81a1.89,1.89,0,0,1,.21.56v4.49a12.21,12.21,0,0,1-.21,2.66,1.45,1.45,0,0,1-.85.5,4.85,4.85,0,0,1-1.12.21c-.07,0-.07.14-.07.49a.82.82,0,0,0,.14.49c.21,0,.84-.07,1.76-.14s1.68-.07,2.24-.07H232c.42,0,.92.07,1.41.07s.91.07,1.12.07a1,1,0,0,0,.07-.49c0-.35-.07-.49-.14-.49a3.76,3.76,0,0,1-1.05-.28,1.51,1.51,0,0,1-.85-.5,13.42,13.42,0,0,1-.21-2.73V11.16a22.87,22.87,0,0,1,2.32-4.07c1.54-2.46,2.6-4.14,3.16-5a2.11,2.11,0,0,1,1.19-.71,3.75,3.75,0,0,1,1.26-.28c.07,0,.14-.14.14-.49a1.19,1.19,0,0,0-.07-.49c-.21,0-.56.07-.91.07s-.77.07-1.12.07h-1.26c-.43,0-1.62-.07-3.65-.21-.07.07-.07.28-.07.56s.07.42.14.42a2.9,2.9,0,0,1,1.47.28c.35.14.56.35.56.56a8.35,8.35,0,0,1-1.19,2.6c-.84,1.4-1.69,2.74-2.53,4a.17.17,0,0,1-.28.07L228,3a1.7,1.7,0,0,1-.28-.77c0-.29.21-.5.63-.64a3.59,3.59,0,0,1,1.13-.21c.07,0,.07-.14.14-.42s0-.49-.07-.56c-2.46.14-3.86.21-4.21.21-2.18,0-3.51,0-4,.07-.07.07-.07.21-.07.42s.07.28.14.28a5.17,5.17,0,0,1,.84.14,4.12,4.12,0,0,1,.91.35,5.91,5.91,0,0,1,1.62,2.11m35.85-.84a8.63,8.63,0,0,1,2.11,3.51A14.61,14.61,0,0,1,263.4,11,11.36,11.36,0,0,1,262,16.77a4.39,4.39,0,0,1-4,2.46,4.87,4.87,0,0,1-3.57-1.48,8.25,8.25,0,0,1-2.11-3.58,14.81,14.81,0,0,1-.63-4.35,11.28,11.28,0,0,1,1.4-5.75,4.33,4.33,0,0,1,4-2.39,4.66,4.66,0,0,1,3.58,1.41m-3.23,17.68a9,9,0,0,0,6.88-3,10.3,10.3,0,0,0,2.88-7.3,10.3,10.3,0,0,0-2.88-7.29,9.34,9.34,0,0,0-13.75,0,10.25,10.25,0,0,0-2.88,7.29,10.26,10.26,0,0,0,2.88,7.3,9,9,0,0,0,6.87,3m19.44-.21c.07-.07.07-.21.07-.49s-.07-.49-.14-.49a5.42,5.42,0,0,1-1.33-.28c-.64-.21-1-.36-1.13-.57a7.44,7.44,0,0,1-.35-2.52V11.44c0-.14.7-.21,2.18-.21a9.69,9.69,0,0,1,2.8.21,1,1,0,0,1,.28.21l.21.42a8.36,8.36,0,0,1,.36,1.19c.07.14.21.21.49.21a.9.9,0,0,0,.56-.14V7.58a.9.9,0,0,0-.56-.14c-.28,0-.49.07-.49.21s-.14.49-.22.77c-.14.63-.28,1-.49,1.05a9.65,9.65,0,0,1-2.1.14h-1.69c-.91,0-1.33-.07-1.33-.21V4.63a18.3,18.3,0,0,1,.14-2.45c.07-.29.84-.43,2.32-.43h1.61A3.92,3.92,0,0,1,282,4.49a.42.42,0,0,0,.42.21,1,1,0,0,0,.63-.14c0-.07-.14-.7-.42-1.75s-.42-2-.49-2.53c-1.05,0-2.74.07-5,.14s-3.86.14-4.84.07c-1.34,0-2.67-.07-4-.14a.9.9,0,0,0-.14.56c0,.28.07.49.14.49a4.72,4.72,0,0,1,1.19.21c.49.14.77.35.84.57a9.62,9.62,0,0,1,.21,2.52V16.14a12,12,0,0,1-.21,2.8c-.07.22-.35.36-.91.5a4.85,4.85,0,0,1-1.12.21c-.07,0-.07.14-.07.49s0,.42.07.49h.63c.35-.07.91-.07,1.61-.14s1.34-.07,2-.07a38.13,38.13,0,0,1,4.35.14"/></svg>